<svg xmlns="http://www.w3.org/2000/svg" xmlns:xlink="http://www.w3.org/1999/xlink" version="1.1" x="0px" y="0px" viewBox="0 0 100 74" enable-background="new 0 0 100 74" xml:space="preserve"><g><path d="M86.6,18.6c-2.7,0-5,1.7-5.9,4c-1.5-3.9-4.2-6-7.5-6h-3.6c-0.6,0-1.1,0.1-1.6,0.2c-0.3,0.1-1.1,0.3-2.2,0.6   C61.5,10.9,54.2,6.8,46.3,6.8c-7.9,0-15.2,4.1-19.5,10.7c-1-0.2-1.7-0.5-2.1-0.6c-0.7-0.2-1.4-0.3-2.1-0.3h-3.2   c-3.8,0-6.5,2.5-8,7.5c0,0.1,0,0.1,0,0.2l-0.8,4.3c-1.8,0.9-3,2.8-3,4.9v13.3c0,2.6,1.3,4.8,3.7,6.1l1.1,4.7c1.3,4.8,4.3,7.6,8,7.6   h51.8c2.7,0,6.2-1.3,8-7.6c0,0,0-0.1,0-0.1l1.3-5.3c1.8-1.4,2.8-3.3,2.8-5.5V33.6l2.3-2.3c3.5,0,6.3-2.9,6.3-6.3   C92.9,21.5,90.1,18.6,86.6,18.6z M46.2,9.2c7.8,0,14.5,4.3,18.1,10.6c-0.7,0.2-1.5,0.4-2.4,0.5c0.3-0.4,0.3-0.9,0-1.2l-2-2.4   c-0.3-0.4-1-0.5-1.4-0.1l-2.4,2c-0.2,0.2-0.3,0.4-0.4,0.7c0,0.3,0.1,0.5,0.2,0.7l1,1.2c-3.3,0.5-7,0.9-10.7,0.9   c-3.7,0-7.4-0.4-10.7-0.9l1-1.2c0.4-0.4,0.3-1.1-0.1-1.4l-2.4-2c-0.4-0.3-1.1-0.3-1.4,0.1l-2,2.4c-0.3,0.4-0.3,0.9,0,1.2   c-0.9-0.2-1.7-0.4-2.4-0.5C31.6,13.5,38.4,9.2,46.2,9.2z M61.2,19.9l-0.8,0.7c-0.8,0.2-1.7,0.3-2.6,0.5l-1.3-1.6   c0,0-0.1-0.1-0.1-0.2c0-0.1,0-0.1,0.1-0.2l2.4-2c0.1,0,0.1-0.1,0.1-0.1c0.1,0,0.1,0,0.2,0.1l2,2.4C61.3,19.7,61.3,19.8,61.2,19.9z    M34.5,21.1c-0.9-0.1-1.7-0.3-2.5-0.5l-0.9-0.7c-0.1-0.1-0.1-0.2,0-0.3l2-2.4c0-0.1,0.1-0.1,0.2-0.1c0,0,0.1,0,0.1,0.1l2.4,2   c0.1,0.1,0.1,0.2,0,0.3L34.5,21.1z M14,24.9c1.1-3.7,2.7-5.4,5.2-5.4h3.2c0.4,0,0.9,0.1,1.3,0.2c2.8,0.8,12.6,3.4,22.5,3.4   c10.1,0,19.8-2.7,22.6-3.5c0.3-0.1,0.5-0.1,0.8-0.1h3.6c3.2,0,4.6,3.3,5.2,5.4l0.9,4.7c-0.1,0-0.2,0-0.3,0H53.4   c-2,0-3.8,1.3-4.4,3.2h-6.4c-0.6-1.8-2.3-3.2-4.4-3.2H13.1L14,24.9z M42.8,33.6h6c0,0.2-0.1,0.3-0.1,0.5v6.5h-5.9v-6.5   C42.9,34,42.8,33.8,42.8,33.6z M9.7,46.7V33.4c0-1.6,1.3-2.9,2.9-2.9h25.6c2,0,3.7,1.6,3.7,3.7v9.4c0,2.5-1.7,3.8-4.5,5.1   c0,0-3.5,2.1-11.7,3.3c-1.7,0.3-3.4,0.4-5.1,0.4c-3,0-4.7-0.5-4.7-0.5C13.6,51.6,9.7,50.4,9.7,46.7z M77.4,56.8   c-1.1,3.6-2.8,5.4-5.2,5.4h-52c-3.4,0-4.7-3.8-5.2-5.4l-1-4.3c0.5,0.2,1.1,0.3,1.7,0.4c0.1,0,1.8,0.5,4.9,0.5   c1.7,0,3.4-0.1,5.2-0.4c8.4-1.3,11.9-3.4,12-3.4c3-1.4,5-3,5-6v-1.9h5.9v1.9c0,3,2,4.5,5,5.9c0.1,0.1,3.6,2.2,12,3.5   c1.8,0.3,3.5,0.4,5.2,0.4c0,0,0,0,0,0c3.1,0,4.9-0.5,4.9-0.5c1-0.2,1.9-0.4,2.6-0.7L77.4,56.8z M81.9,46.7c0,3.7-3.9,4.8-6.2,5.2   c0,0-1.7,0.5-4.7,0.5c0,0,0,0,0,0c-1.6,0-3.3-0.1-5.1-0.4c-8.2-1.3-11.6-3.3-11.7-3.4c-2.7-1.3-4.4-2.6-4.4-5.1v-9.4   c0-2,1.6-3.7,3.7-3.7h25.6c1.6,0,2.9,1.3,2.9,2.9V46.7z M82.5,31.8c-0.4-1-1.2-1.7-2.2-2.1L80,28.4l2.1-2.1c0.5,1.4,1.5,2.5,2.9,3   L82.5,31.8z M86.7,28.7c-2.1,0-3.8-1.7-3.8-3.8s1.7-3.8,3.8-3.8s3.8,1.7,3.8,3.8S88.8,28.7,86.7,28.7z"></path><path d="M44.6,15.8h3.1c0.6,0,1-0.5,1-1v-3.1c0-0.6-0.5-1-1-1h-3.1c-0.6,0-1,0.5-1,1v3.1C43.6,15.3,44.1,15.8,44.6,15.8z    M44.4,11.6c0-0.1,0.1-0.2,0.2-0.2h3.1c0.1,0,0.2,0.1,0.2,0.2v3.1c0,0.1-0.1,0.2-0.2,0.2h-3.1c-0.1,0-0.2-0.1-0.2-0.2V11.6z"></path><path d="M37.4,17.3c0.2,0.4,0.5,0.6,0.9,0.6c0.1,0,0.3,0,0.4-0.1l2.8-1.3c0.2-0.1,0.4-0.3,0.5-0.6c0.1-0.3,0.1-0.5,0-0.8l-1.3-2.8   c-0.2-0.5-0.9-0.7-1.4-0.5l-2.8,1.3c-0.5,0.2-0.7,0.8-0.5,1.4L37.4,17.3z M36.9,13.8l2.9-1.3c0.1,0,0.2,0.1,0.2,0.1l1.3,2.8   c0,0.1,0,0.1,0,0.2c0,0.1-0.1,0.1-0.1,0.1l-2.8,1.3c-0.1,0.1-0.2,0-0.3-0.1l-1.3-2.8C36.7,14,36.7,13.9,36.9,13.8z"></path><path d="M50.8,16.5l2.8,1.3c0.1,0.1,0.3,0.1,0.4,0.1c0.4,0,0.8-0.2,0.9-0.6l1.3-2.8c0.2-0.5,0-1.1-0.5-1.4L53,11.8   c-0.5-0.2-1.1,0-1.4,0.5l-1.3,2.8C50.1,15.6,50.3,16.2,50.8,16.5z M51,15.4l1.3-2.8c0-0.1,0.1-0.1,0.2-0.1c0,0,0,0,0.1,0l2.8,1.3   c0.1,0.1,0.2,0.2,0.1,0.3L54.3,17c0,0.1-0.1,0.1-0.2,0.1l-2.9-1.3C51,15.7,51,15.5,51,15.4z"></path><circle cx="25.7" cy="40.9" r="5.4"></circle><circle cx="65.7" cy="40.9" r="5.4"></circle><path d="M25.7,48c4,0,7.2-3.2,7.2-7.2s-3.2-7.2-7.2-7.2s-7.2,3.2-7.2,7.2S21.7,48,25.7,48z M25.7,34.6c3.5,0,6.3,2.8,6.3,6.3   s-2.8,6.3-6.3,6.3c-3.5,0-6.3-2.8-6.3-6.3S22.2,34.6,25.7,34.6z"></path><path d="M65.7,33.7c-4,0-7.2,3.2-7.2,7.2s3.2,7.2,7.2,7.2c4,0,7.2-3.2,7.2-7.2S69.6,33.7,65.7,33.7z M65.7,47.1   c-3.5,0-6.3-2.8-6.3-6.3s2.8-6.3,6.3-6.3s6.3,2.8,6.3,6.3S69.1,47.1,65.7,47.1z"></path></g></svg>